<svg xmlns="http://www.w3.org/2000/svg">
  <symbol id="home" viewBox="0 0 24 24"><path d="M3 11.5 12 4l9 7.5v8a1 1 0 0 1-1 1h-5v-6H9v6H4a1 1 0 0 1-1-1z"/></symbol>
  <symbol id="projects" viewBox="0 0 24 24"><path d="M3 7h7l2 2h9v10H3z"/><path d="M3 7V5h7l2 2"/></symbol>
  <symbol id="results" viewBox="0 0 24 24"><path d="M6 3h9l3 3v15H6z"/><path d="M9 12h6M9 16h6M14 3v4h4"/></symbol>
  <symbol id="finance" viewBox="0 0 24 24"><path d="M4 7h16v11H4z"/><path d="M4 10h16M8 15h3"/></symbol>
  <symbol id="people" viewBox="0 0 24 24"><circle cx="9" cy="8" r="3"/><path d="M3 20c.5-4 2.5-6 6-6s5.5 2 6 6"/><circle cx="17" cy="9" r="2"/><path d="M15 15c3-1 5 1 6 4"/></symbol>
  <symbol id="payroll" viewBox="0 0 24 24"><circle cx="12" cy="12" r="9"/><path d="M8 9h8M8 15h8M12 6v12"/></symbol>
  <symbol id="ledger" viewBox="0 0 24 24"><path d="M5 3h14v18H5zM8 7h8M8 11h8M8 15h5"/></symbol>
  <symbol id="partners" viewBox="0 0 24 24"><path d="m3 12 5-4 4 3 4-3 5 4-5 5-4-3-4 3z"/></symbol>
  <symbol id="company" viewBox="0 0 24 24"><path d="M4 21V7l8-4v18M12 9h8v12M7 9h2M7 13h2M7 17h2M15 13h2M15 17h2"/></symbol>
  <symbol id="equipment" viewBox="0 0 24 24"><path d="M3 16h14l3-5h-6l-2-4H6z"/><circle cx="7" cy="18" r="2"/><circle cx="17" cy="18" r="2"/></symbol>
  <symbol id="exchange" viewBox="0 0 24 24"><path d="M4 8h14M14 4l4 4-4 4M20 16H6M10 12l-4 4 4 4"/></symbol>
  <symbol id="reminder" viewBox="0 0 24 24"><path d="M6 9a6 6 0 0 1 12 0v5l2 3H4l2-3z"/><path d="M10 20h4"/></symbol>
  <symbol id="settings" viewBox="0 0 24 24"><circle cx="12" cy="12" r="3"/><path d="M12 2v3M12 19v3M2 12h3M19 12h3M4.9 4.9 7 7M17 17l2.1 2.1M19.1 4.9 17 7M7 17l-2.1 2.1"/></symbol>
  <symbol id="menu" viewBox="0 0 24 24"><path d="M4 7h16M4 12h16M4 17h16"/></symbol>
</svg>
